<svg xmlns="http://www.w3.org/2000/svg"
     width="1200" height="420" viewBox="0 0 1200 420"
     role="img" aria-labelledby="title desc">
  <title id="title">MuYuNest</title>
  <desc id="desc">沉浸式 3D 博客与自托管写作基础设施，右侧为博客首页的线框超立方体意象。</desc>

  <rect width="1200" height="420" rx="24" fill="#050510"/>
  <rect x="1" y="1" width="1198" height="418" rx="23" fill="none" stroke="#29314a" stroke-width="2"/>

  <g fill="#f6f8ff">
    <circle cx="93" cy="63" r="1.5" opacity=".55"/>
    <circle cx="222" cy="46" r="1" opacity=".35"/>
    <circle cx="391" cy="76" r="1.5" opacity=".4"/>
    <circle cx="548" cy="42" r="1" opacity=".3"/>
    <circle cx="727" cy="82" r="1.5" opacity=".45"/>
    <circle cx="864" cy="44" r="1" opacity=".35"/>
    <circle cx="1074" cy="73" r="1.5" opacity=".5"/>
    <circle cx="1141" cy="182" r="1" opacity=".3"/>
    <circle cx="76" cy="245" r="1" opacity=".3"/>
    <circle cx="1110" cy="332" r="1.5" opacity=".4"/>
  </g>

  <g id="title-block" transform="translate(72 62)">
    <text x="0" y="0"
          fill="#8ab2ff"
          font-family="ui-monospace, SFMono-Regular, Menlo, Consolas, monospace"
          font-size="18" font-weight="600">PERSONAL PUBLISHING MONOREPO</text>
    <text x="0" y="92"
          fill="#f6f8ff"
          font-family="-apple-system, BlinkMacSystemFont, Segoe UI, PingFang SC, Microsoft YaHei, sans-serif"
          font-size="76" font-weight="750">MuYuNest</text>
    <text x="2" y="142"
          fill="#cbd5ef"
          font-family="-apple-system, BlinkMacSystemFont, Segoe UI, PingFang SC, Microsoft YaHei, sans-serif"
          font-size="26" font-weight="500">沉浸式 3D 博客与自托管写作基础设施</text>

    <g transform="translate(2 194)"
       fill="#9faaca"
       font-family="ui-monospace, SFMono-Regular, Menlo, Consolas, monospace"
       font-size="18">
      <text x="0" y="0">NUXT SPA</text>
      <circle cx="116" cy="-6" r="3" fill="#8ab2ff"/>
      <text x="136" y="0">THREE.JS</text>
      <circle cx="264" cy="-6" r="3" fill="#8ab2ff"/>
      <text x="284" y="0">MUYU IMAGE BED</text>
    </g>
  </g>

  <g id="hypercube" transform="translate(820 72)"
     fill="none" stroke="#8ab2ff" stroke-width="2">
    <path d="M40 76 198 34 300 126 246 278 92 302 14 184Z" opacity=".9"/>
    <path d="M104 116 212 88 256 158 214 234 114 250 62 182Z" opacity=".75"/>
    <path d="M40 76 104 116M198 34 212 88M300 126 256 158M246 278 214 234M92 302 114 250M14 184 62 182"
          opacity=".7"/>
    <path d="M40 76 212 88M198 34 256 158M300 126 214 234M246 278 114 250M92 302 62 182M14 184 104 116"
          opacity=".45"/>
    <g fill="#8ab2ff" stroke="none">
      <circle cx="40" cy="76" r="5"/>
      <circle cx="198" cy="34" r="5"/>
      <circle cx="300" cy="126" r="5"/>
      <circle cx="246" cy="278" r="5"/>
      <circle cx="92" cy="302" r="5"/>
      <circle cx="14" cy="184" r="5"/>
      <circle cx="104" cy="116" r="4"/>
      <circle cx="212" cy="88" r="4"/>
      <circle cx="256" cy="158" r="4"/>
      <circle cx="214" cy="234" r="4"/>
      <circle cx="114" cy="250" r="4"/>
      <circle cx="62" cy="182" r="4"/>
    </g>
  </g>

  <g id="publishing-flow" transform="translate(74 365)"
     font-family="ui-monospace, SFMono-Regular, Menlo, Consolas, monospace"
     font-size="18" font-weight="600">
    <text x="0" y="0" fill="#f6f8ff">LOCAL IMAGE</text>
    <text x="132" y="0" fill="#53617f">→</text>
    <text x="163" y="0" fill="#8ab2ff">MUYU IMAGE BED</text>
    <text x="347" y="0" fill="#53617f">→</text>
    <text x="378" y="0" fill="#f6f8ff">PUBLIC URL</text>
    <text x="507" y="0" fill="#53617f">→</text>
    <text x="538" y="0" fill="#8ab2ff">MARKDOWN</text>
    <text x="650" y="0" fill="#53617f">→</text>
    <text x="681" y="0" fill="#f6f8ff">STATIC BLOG</text>
  </g>
</svg>
